<svg width="24" height="24" viewBox="0 0 24 24" fill="none" xmlns="http://www.w3.org/2000/svg">
<path d="M12 1C9.82441 1 7.69767 1.64514 5.88873 2.85383C4.07979 4.06253 2.66989 5.78049 1.83733 7.79048C1.00477 9.80047 0.786929 12.0122 1.21137 14.146C1.6358 16.2798 2.68345 18.2398 4.22183 19.7782C5.76021 21.3165 7.72022 22.3642 9.85401 22.7886C11.9878 23.2131 14.1995 22.9952 16.2095 22.1627C18.2195 21.3301 19.9375 19.9202 21.1462 18.1113C22.3549 16.3023 23 14.1756 23 12C23 10.5555 22.7155 9.12506 22.1627 7.79048C21.6099 6.4559 20.7996 5.24327 19.7782 4.22182C18.7567 3.20038 17.5441 2.39013 16.2095 1.83732C14.8749 1.28452 13.4445 1 12 1ZM12 20.8C10.2595 20.8 8.55814 20.2839 7.11099 19.3169C5.66383 18.35 4.53592 16.9756 3.86986 15.3676C3.20381 13.7596 3.02954 11.9902 3.36909 10.2832C3.70864 8.57617 4.54676 7.00816 5.77746 5.77746C7.00817 4.54676 8.57618 3.70864 10.2832 3.36909C11.9902 3.02954 13.7596 3.20381 15.3676 3.86986C16.9756 4.53591 18.35 5.66383 19.3169 7.11098C20.2839 8.55813 20.8 10.2595 20.8 12C20.8 14.3339 19.8729 16.5722 18.2225 18.2225C16.5722 19.8729 14.3339 20.8 12 20.8ZM15.3 10.306L13.551 12L15.3 13.694C15.513 13.907 15.6326 14.1958 15.6326 14.497C15.6326 14.7982 15.513 15.087 15.3 15.3C15.087 15.513 14.7982 15.6326 14.497 15.6326C14.1958 15.6326 13.907 15.513 13.694 15.3L12 13.551L10.306 15.3C10.093 15.513 9.80419 15.6326 9.503 15.6326C9.20182 15.6326 8.91297 15.513 8.7 15.3C8.48703 15.087 8.36739 14.7982 8.36739 14.497C8.36739 14.1958 8.48703 13.907 8.7 13.694L10.449 12L8.7 10.306C8.48703 10.093 8.36739 9.80418 8.36739 9.503C8.36739 9.20181 8.48703 8.91297 8.7 8.7C8.91297 8.48703 9.20182 8.36738 9.503 8.36738C9.80419 8.36738 10.093 8.48703 10.306 8.7L12 10.449L13.694 8.7C13.907 8.48703 14.1958 8.36738 14.497 8.36738C14.7982 8.36738 15.087 8.48703 15.3 8.7C15.513 8.91297 15.6326 9.20181 15.6326 9.503C15.6326 9.80418 15.513 10.093 15.3 10.306Z" fill="#A5A5A5"/>
</svg>
