<svg width="18" height="18" viewBox="0 0 18 18" fill="none" xmlns="http://www.w3.org/2000/svg">
<path d="M11.7075 9.45747L7.71211 13.4528C7.52402 13.6409 7.26892 13.7466 7.00293 13.7466C6.73694 13.7466 6.48184 13.6409 6.29375 13.4528C6.10567 13.2648 6 13.0097 6 12.7437C6 12.4777 6.10567 12.2226 6.29375 12.0345L9.58993 8.7483L6.29375 5.46211C6.10567 5.27402 6 5.01892 6 4.75293C6 4.62122 6.02594 4.49081 6.07634 4.36912C6.12674 4.24744 6.20062 4.13688 6.29375 4.04375C6.38688 3.95062 6.49744 3.87675 6.61912 3.82634C6.7408 3.77594 6.87122 3.75 7.00293 3.75C7.26892 3.75 7.52402 3.85567 7.71211 4.04375L11.7075 8.03912C11.8011 8.13197 11.8754 8.24245 11.9261 8.36417C11.9768 8.48588 12.0029 8.61644 12.0029 8.7483C12.0029 8.88016 11.9768 9.01071 11.9261 9.13243C11.8754 9.25415 11.8011 9.36462 11.7075 9.45747V9.45747Z" fill="#656565"/>
</svg>
