<svg width="22" height="22" viewBox="0 0 22 22" fill="none" xmlns="http://www.w3.org/2000/svg">
<path d="M15.5832 1.83301H6.4165C5.68716 1.83301 4.98769 2.12274 4.47196 2.63846C3.95624 3.15419 3.6665 3.85366 3.6665 4.58301V18.8738C3.67229 19.1168 3.72633 19.3562 3.82547 19.5781C3.92461 19.8 4.06688 19.9999 4.244 20.1663C4.58586 20.4968 5.04272 20.6815 5.51817 20.6815C5.99362 20.6815 6.45048 20.4968 6.79234 20.1663L10.8898 16.078L10.9998 16.0322L11.1098 16.078L15.2073 20.1663C15.4637 20.4212 15.7897 20.5946 16.1443 20.6647C16.4989 20.7348 16.8663 20.6985 17.2004 20.5604C17.5344 20.4222 17.8202 20.1884 18.0218 19.8884C18.2233 19.5883 18.3317 19.2353 18.3332 18.8738V4.58301C18.3332 3.85366 18.0434 3.15419 17.5277 2.63846C17.012 2.12274 16.3125 1.83301 15.5832 1.83301ZM16.4998 18.8738L12.4115 14.7763C12.0345 14.4068 11.5277 14.1999 10.9998 14.1999C10.472 14.1999 9.96514 14.4068 9.58817 14.7763L5.49984 18.8647V7.33301H16.4998V18.8738ZM16.4998 5.49967H5.49984V4.58301C5.49984 4.33989 5.59641 4.10674 5.76832 3.93483C5.94023 3.76292 6.17339 3.66634 6.4165 3.66634H15.5832C15.8263 3.66634 16.0594 3.76292 16.2314 3.93483C16.4033 4.10674 16.4998 4.33989 16.4998 4.58301V5.49967Z" fill="#A5A5A5"/>
</svg>
