<svg width="20" height="20" viewBox="0 0 20 20" fill="none" xmlns="http://www.w3.org/2000/svg">
<path d="M3.75 11C3.75 10.7528 3.82331 10.5111 3.96066 10.3055C4.09801 10.1 4.29324 9.93976 4.52165 9.84515C4.75005 9.75054 5.00139 9.72579 5.24386 9.77402C5.48634 9.82225 5.70907 9.9413 5.88388 10.1161C6.0587 10.2909 6.17775 10.5137 6.22598 10.7561C6.27421 10.9986 6.24946 11.2499 6.15485 11.4784C6.06024 11.7068 5.90002 11.902 5.69446 12.0393C5.4889 12.1767 5.24723 12.25 5 12.25C4.66848 12.25 4.35054 12.1183 4.11612 11.8839C3.8817 11.6495 3.75 11.3315 3.75 11ZM5 16.25C5.24723 16.25 5.4889 16.1767 5.69446 16.0393C5.90002 15.902 6.06024 15.7068 6.15485 15.4784C6.24946 15.2499 6.27421 14.9986 6.22598 14.7561C6.17775 14.5137 6.0587 14.2909 5.88388 14.1161C5.70907 13.9413 5.48634 13.8222 5.24386 13.774C5.00139 13.7258 4.75005 13.7505 4.52165 13.8452C4.29324 13.9398 4.09801 14.1 3.96066 14.3055C3.82331 14.5111 3.75 14.7528 3.75 15C3.75 15.3315 3.8817 15.6495 4.11612 15.8839C4.35054 16.1183 4.66848 16.25 5 16.25ZM10 12.25C10.2472 12.25 10.4889 12.1767 10.6945 12.0393C10.9 11.902 11.0602 11.7068 11.1548 11.4784C11.2495 11.2499 11.2742 10.9986 11.226 10.7561C11.1778 10.5137 11.0587 10.2909 10.8839 10.1161C10.7091 9.9413 10.4863 9.82225 10.2439 9.77402C10.0014 9.72579 9.75005 9.75054 9.52165 9.84515C9.29324 9.93976 9.09801 10.1 8.96066 10.3055C8.82331 10.5111 8.75 10.7528 8.75 11C8.75 11.3315 8.8817 11.6495 9.11612 11.8839C9.35054 12.1183 9.66848 12.25 10 12.25ZM10 16.25C10.2472 16.25 10.4889 16.1767 10.6945 16.0393C10.9 15.902 11.0602 15.7068 11.1548 15.4784C11.2495 15.2499 11.2742 14.9986 11.226 14.7561C11.1778 14.5137 11.0587 14.2909 10.8839 14.1161C10.7091 13.9413 10.4863 13.8222 10.2439 13.774C10.0014 13.7258 9.75005 13.7505 9.52165 13.8452C9.29324 13.9398 9.09801 14.1 8.96066 14.3055C8.82331 14.5111 8.75 14.7528 8.75 15C8.75 15.3315 8.8817 15.6495 9.11612 15.8839C9.35054 16.1183 9.66848 16.25 10 16.25ZM15 12.25C15.2472 12.25 15.4889 12.1767 15.6945 12.0393C15.9 11.902 16.0602 11.7068 16.1549 11.4784C16.2495 11.2499 16.2742 10.9986 16.226 10.7561C16.1777 10.5137 16.0587 10.2909 15.8839 10.1161C15.7091 9.9413 15.4863 9.82225 15.2439 9.77402C15.0014 9.72579 14.7501 9.75054 14.5216 9.84515C14.2932 9.93976 14.098 10.1 13.9607 10.3055C13.8233 10.5111 13.75 10.7528 13.75 11C13.75 11.3315 13.8817 11.6495 14.1161 11.8839C14.3505 12.1183 14.6685 12.25 15 12.25ZM20 5V17C20 17.7956 19.6839 18.5587 19.1213 19.1213C18.5587 19.6839 17.7956 20 17 20H3C2.20435 20 1.44129 19.6839 0.87868 19.1213C0.316071 18.5587 0 17.7956 0 17V5C0 4.20435 0.316071 3.44129 0.87868 2.87868C1.44129 2.31607 2.20435 2 3 2H4V1C4 0.734784 4.10536 0.48043 4.29289 0.292893C4.48043 0.105357 4.73478 0 5 0C5.26522 0 5.51957 0.105357 5.70711 0.292893C5.89464 0.48043 6 0.734784 6 1V2H14V1C14 0.734784 14.1054 0.48043 14.2929 0.292893C14.4804 0.105357 14.7348 0 15 0C15.2652 0 15.5196 0.105357 15.7071 0.292893C15.8946 0.48043 16 0.734784 16 1V2H17C17.7956 2 18.5587 2.31607 19.1213 2.87868C19.6839 3.44129 20 4.20435 20 5ZM2 5V6H18V5C18 4.73478 17.8946 4.48043 17.7071 4.29289C17.5196 4.10536 17.2652 4 17 4H3C2.73478 4 2.48043 4.10536 2.29289 4.29289C2.10536 4.48043 2 4.73478 2 5ZM18 8H2V17C2 17.2652 2.10536 17.5196 2.29289 17.7071C2.48043 17.8946 2.73478 18 3 18H17C17.2652 18 17.5196 17.8946 17.7071 17.7071C17.8946 17.5196 18 17.2652 18 17V8Z" fill="current"/>
</svg>
