<svg width="22" height="22" viewBox="0 0 22 22" fill="none" xmlns="http://www.w3.org/2000/svg">
<path d="M11 0C8.82441 0 6.69767 0.645139 4.88873 1.85383C3.07979 3.06253 1.66989 4.78049 0.83733 6.79048C0.00476612 8.80047 -0.213071 11.0122 0.211367 13.146C0.635804 15.2798 1.68345 17.2398 3.22183 18.7782C4.76021 20.3165 6.72022 21.3642 8.85401 21.7886C10.9878 22.2131 13.1995 21.9952 15.2095 21.1627C17.2195 20.3301 18.9375 18.9202 20.1462 17.1113C21.3549 15.3023 22 13.1756 22 11C22 9.55546 21.7155 8.12506 21.1627 6.79048C20.6099 5.4559 19.7996 4.24327 18.7782 3.22182C17.7567 2.20038 16.5441 1.39013 15.2095 0.837325C13.8749 0.284523 12.4445 0 11 0ZM11 19.8C9.25953 19.8 7.55814 19.2839 6.11099 18.3169C4.66383 17.35 3.53592 15.9756 2.86986 14.3676C2.20381 12.7596 2.02954 10.9902 2.36909 9.2832C2.70864 7.57617 3.54676 6.00816 4.77746 4.77746C6.00817 3.54676 7.57618 2.70864 9.28321 2.36909C10.9902 2.02954 12.7596 2.20381 14.3676 2.86986C15.9756 3.53591 17.35 4.66383 18.3169 6.11098C19.2839 7.55813 19.8 9.25952 19.8 11C19.8 13.3339 18.8729 15.5722 17.2225 17.2225C15.5722 18.8729 13.3339 19.8 11 19.8ZM14.3 9.306L12.551 11L14.3 12.694C14.513 12.907 14.6326 13.1958 14.6326 13.497C14.6326 13.7982 14.513 14.087 14.3 14.3C14.087 14.513 13.7982 14.6326 13.497 14.6326C13.1958 14.6326 12.907 14.513 12.694 14.3L11 12.551L9.306 14.3C9.09303 14.513 8.80419 14.6326 8.503 14.6326C8.20182 14.6326 7.91297 14.513 7.7 14.3C7.48703 14.087 7.36739 13.7982 7.36739 13.497C7.36739 13.1958 7.48703 12.907 7.7 12.694L9.449 11L7.7 9.306C7.48703 9.09303 7.36739 8.80418 7.36739 8.503C7.36739 8.20181 7.48703 7.91297 7.7 7.7C7.91297 7.48703 8.20182 7.36738 8.503 7.36738C8.80419 7.36738 9.09303 7.48703 9.306 7.7L11 9.449L12.694 7.7C12.907 7.48703 13.1958 7.36738 13.497 7.36738C13.7982 7.36738 14.087 7.48703 14.3 7.7C14.513 7.91297 14.6326 8.20181 14.6326 8.503C14.6326 8.80418 14.513 9.09303 14.3 9.306Z" fill="white"/>
</svg>
