<svg width="24" height="24" viewBox="0 0 24 24" fill="none" xmlns="http://www.w3.org/2000/svg">
<path d="M3.64735 18.5378L7.64735 17.5378C7.8248 17.4956 7.98733 17.4057 8.11735 17.2778L17.6974 7.68775C18.2592 7.12525 18.5747 6.36275 18.5747 5.56775C18.5747 4.77275 18.2592 4.01025 17.6974 3.44775L17.5274 3.27775C16.9648 2.71595 16.2024 2.40039 15.4074 2.40039C14.6123 2.40039 13.8499 2.71595 13.2874 3.27775L3.69735 12.8278C3.56944 12.9578 3.47953 13.1203 3.43735 13.2978L2.43735 17.2978C2.38974 17.4668 2.38749 17.6454 2.43082 17.8156C2.47415 17.9858 2.56154 18.1416 2.68419 18.2672C2.80684 18.3929 2.96043 18.4841 3.12951 18.5316C3.29859 18.5791 3.47719 18.5812 3.64735 18.5378ZM15.4074 4.36775C15.539 4.36699 15.6694 4.39222 15.7913 4.44198C15.9131 4.49174 16.0239 4.56507 16.1173 4.65775L16.2873 4.82775C16.3811 4.92071 16.4555 5.03132 16.5062 5.15317C16.557 5.27503 16.5831 5.40574 16.5831 5.53775C16.5831 5.66976 16.557 5.80047 16.5062 5.92233C16.4555 6.04419 16.3811 6.15479 16.2873 6.24775L14.8874 7.63775L13.3074 6.05775L14.6974 4.65775C14.7908 4.56507 14.9016 4.49174 15.0234 4.44198C15.1453 4.39222 15.2757 4.36699 15.4074 4.36775ZM5.30735 14.0478L11.8874 7.46775L13.4774 9.05775L6.89735 15.6378L4.77735 16.1678L5.30735 14.0478ZM20.4074 20.5378C20.4074 20.803 20.302 21.0573 20.1145 21.2449C19.9269 21.4324 19.6726 21.5378 19.4074 21.5378H3.40735C3.14213 21.5378 2.88778 21.4324 2.70024 21.2449C2.51271 21.0573 2.40735 20.803 2.40735 20.5378C2.40735 20.2725 2.51271 20.0182 2.70024 19.8306C2.88778 19.6431 3.14213 19.5378 3.40735 19.5378H19.4074C19.6726 19.5378 19.9269 19.6431 20.1145 19.8306C20.302 20.0182 20.4074 20.2725 20.4074 20.5378ZM12.4074 15.5378H19.4074C19.6726 15.5378 19.9269 15.6431 20.1145 15.8306C20.302 16.0182 20.4074 16.2725 20.4074 16.5378C20.4074 16.803 20.302 17.0573 20.1145 17.2449C19.9269 17.4324 19.6726 17.5378 19.4074 17.5378H12.4074C12.1421 17.5378 11.8878 17.4324 11.7002 17.2449C11.5127 17.0573 11.4074 16.803 11.4074 16.5378C11.4074 16.2725 11.5127 16.0182 11.7002 15.8306C11.8878 15.6431 12.1421 15.5378 12.4074 15.5378Z" fill="#5B5B5B"/>
</svg>
