<svg width="24" height="24" viewBox="0 0 24 24" fill="none" xmlns="http://www.w3.org/2000/svg">
<path d="M19.2901 4.88037L19.1201 4.71037C18.5576 4.14857 17.7951 3.83301 17.0001 3.83301C16.2051 3.83301 15.4426 4.14857 14.8801 4.71037L5.29012 14.2904C5.16222 14.4204 5.07231 14.5829 5.03012 14.7604L4.03012 18.7604C3.98251 18.9294 3.98026 19.108 4.02359 19.2782C4.06692 19.4484 4.15431 19.6042 4.27696 19.7299C4.39962 19.8556 4.55321 19.9467 4.72229 19.9942C4.89136 20.0417 5.06997 20.0438 5.24012 20.0004L9.24012 19.0004C9.41757 18.9582 9.5801 18.8683 9.71012 18.7404L19.2901 9.15037C19.8519 8.58787 20.1675 7.82537 20.1675 7.03037C20.1675 6.23537 19.8519 5.47287 19.2901 4.91037V4.88037ZM8.49012 17.1004L6.37012 17.6304L6.90012 15.5104L13.4801 8.93037L15.0701 10.5204L8.49012 17.1004ZM17.8801 7.71037L16.4801 9.10037L14.9001 7.52037L16.2901 6.12037C16.3831 6.02664 16.4937 5.95225 16.6155 5.90148C16.7374 5.85071 16.8681 5.82457 17.0001 5.82457C17.1321 5.82457 17.2628 5.85071 17.3847 5.90148C17.5066 5.95225 17.6172 6.02664 17.7101 6.12037L17.8801 6.29037C17.9739 6.38333 18.0482 6.49393 18.099 6.61579C18.1498 6.73765 18.1759 6.86836 18.1759 7.00037C18.1759 7.13238 18.1498 7.26309 18.099 7.38494C18.0482 7.5068 17.9739 7.6174 17.8801 7.71037V7.71037Z" fill="#A5A5A5"/>
</svg>
