<svg width="24" height="24" viewBox="0 0 24 24" fill="none" xmlns="http://www.w3.org/2000/svg">
<path d="M17 7H16V6C16 4.93913 15.5786 3.92172 14.8284 3.17157C14.0783 2.42143 13.0609 2 12 2C10.9391 2 9.92172 2.42143 9.17157 3.17157C8.42143 3.92172 8 4.93913 8 6V7H7C6.20435 7 5.44129 7.31607 4.87868 7.87868C4.31607 8.44129 4 9.20435 4 10V18C4 18.7956 4.31607 19.5587 4.87868 20.1213C5.44129 20.6839 6.20435 21 7 21H17C17.7956 21 18.5587 20.6839 19.1213 20.1213C19.6839 19.5587 20 18.7956 20 18V10C20 9.20435 19.6839 8.44129 19.1213 7.87868C18.5587 7.31607 17.7956 7 17 7ZM10 6C10 5.46957 10.2107 4.96086 10.5858 4.58579C10.9609 4.21071 11.4696 4 12 4C12.5304 4 13.0391 4.21071 13.4142 4.58579C13.7893 4.96086 14 5.46957 14 6V7H10V6ZM18 18C18 18.2652 17.8946 18.5196 17.7071 18.7071C17.5196 18.8946 17.2652 19 17 19H7C6.73478 19 6.48043 18.8946 6.29289 18.7071C6.10536 18.5196 6 18.2652 6 18V10C6 9.73478 6.10536 9.48043 6.29289 9.29289C6.48043 9.10536 6.73478 9 7 9H17C17.2652 9 17.5196 9.10536 17.7071 9.29289C17.8946 9.48043 18 9.73478 18 10V18ZM13.5 13.48C13.4993 13.7334 13.4348 13.9826 13.3124 14.2045C13.1901 14.4265 13.0139 14.6141 12.8 14.75V15.48C12.8 15.6922 12.7157 15.8957 12.5657 16.0457C12.4157 16.1957 12.2122 16.28 12 16.28C11.7878 16.28 11.5843 16.1957 11.4343 16.0457C11.2843 15.8957 11.2 15.6922 11.2 15.48V14.75C10.9861 14.6141 10.8099 14.4265 10.6876 14.2045C10.5652 13.9826 10.5007 13.7334 10.5 13.48C10.5 13.0822 10.658 12.7006 10.9393 12.4193C11.2206 12.138 11.6022 11.98 12 11.98C12.3978 11.98 12.7794 12.138 13.0607 12.4193C13.342 12.7006 13.5 13.0822 13.5 13.48Z" fill="#ADADAD"/>
</svg>
