<svg width="17" height="16" viewBox="0 0 17 16" fill="none" xmlns="http://www.w3.org/2000/svg">
<path d="M16.2499 8.00091C16.2243 7.36552 15.9559 6.76418 15.4999 6.32091C15.0701 5.87813 14.5614 5.51948 13.9999 5.26341C13.9999 5.26341 13.9624 5.26341 13.9324 5.21841L3.69494 0.905911C3.3968 0.775427 3.07537 0.706548 2.74994 0.703411C2.42375 0.698438 2.09982 0.758395 1.79702 0.879793C1.49422 1.00119 1.21858 1.18161 0.986166 1.41053C0.753747 1.63946 0.569184 1.91234 0.443219 2.21327C0.317254 2.5142 0.252404 2.83718 0.252441 3.16341C0.265326 3.60034 0.370101 4.02966 0.559941 4.42341L1.94744 8.00091L0.559941 11.5859C0.371971 11.9803 0.267294 12.4092 0.252441 12.8459C0.252417 13.1725 0.317221 13.4958 0.443097 13.7972C0.568972 14.0985 0.753414 14.3719 0.98573 14.6014C1.21805 14.8309 1.49361 15.012 1.79645 15.1343C2.0993 15.2565 2.42339 15.3174 2.74994 15.3134C3.08043 15.3123 3.40717 15.2434 3.70994 15.1109L13.9174 10.7984C13.9528 10.7803 13.9856 10.7576 14.0149 10.7309C14.5825 10.4524 15.0916 10.068 15.5149 9.59841C15.722 9.3757 15.8939 9.12281 16.0249 8.84841C16.1607 8.58565 16.2375 8.29642 16.2499 8.00091ZM2.74994 2.20341C2.9149 2.20403 3.07718 2.24524 3.22244 2.32341C3.25569 2.34036 3.29098 2.35297 3.32744 2.36091L12.9499 6.44091C13.4449 6.62775 13.9022 6.90212 14.2999 7.25091H3.26744L1.82744 3.54591C1.78447 3.42547 1.76166 3.29877 1.75994 3.17091C1.75887 3.04165 1.78391 2.9135 1.83357 2.79415C1.88323 2.6748 1.95648 2.56671 2.04893 2.47636C2.14138 2.38601 2.25113 2.31526 2.37159 2.26836C2.49205 2.22146 2.62074 2.19937 2.74994 2.20341ZM1.75244 12.8459C1.75672 12.7281 1.7795 12.6117 1.81994 12.5009L3.26744 8.75091H14.2399C13.8641 9.09696 13.4265 9.36919 12.9499 9.55341L3.28994 13.6484H3.18494C3.04165 13.7323 2.8785 13.7764 2.71244 13.7759C2.46351 13.7742 2.22483 13.6765 2.04603 13.5033C1.86724 13.3301 1.76208 13.0947 1.75244 12.8459Z" fill="#A5A5A5"/>
</svg>
