<svg width="96" height="107" viewBox="0 0 96 107" fill="none" xmlns="http://www.w3.org/2000/svg">
<g clip-path="url(#clip0_559_10046)">
<path d="M34.8971 93.0866C33.334 95.8958 34.5767 99.2279 37.3669 100.82C39.0238 101.764 41.1418 102.146 43.2521 102.466C48.598 103.278 54.366 101.561 54.8896 98.1432C55.3507 95.1155 52.412 91.1514 46.4878 90.4022C46.1751 90.3554 45.8547 90.3242 45.5264 90.3086C43.5803 89.9496 42.1266 88.5606 42.1266 86.9063V83.4182H36.1632V89.2395C36.1372 90.3684 35.7125 91.6508 34.8893 93.0866H34.8971Z" fill="#D85F35"/>
<path d="M51.2238 97.4252C49.6606 100.234 50.9033 103.566 53.6935 105.158C55.3504 106.103 57.4685 106.485 59.5787 106.805C64.9247 107.616 70.6926 105.9 71.2163 102.482C71.6774 99.4541 68.7387 95.49 62.8144 94.7409C62.5018 94.694 62.1813 94.6628 61.8531 94.6472C59.907 94.2883 58.4533 92.8993 58.4533 91.2449V87.7568H52.4899V93.5782C52.4639 94.707 52.0392 95.9894 51.2159 97.4252H51.2238Z" fill="#FF7E3E"/>
<path d="M95.0858 7.19475C95.4531 7.35082 95.8126 7.74098 95.9064 7.99069C96.6176 9.80108 93.0693 13.1643 90.1697 15.045C85.4725 18.0883 81.1973 22.068 81.127 22.107L82.2837 4.83032C82.2837 4.83032 81.5099 5.50922 86.5588 6.50805C91.2404 7.43665 92.6082 6.14129 95.0779 7.20255L95.0858 7.19475Z" fill="#FF7E3E"/>
<path d="M81.6034 42.2007C81.4002 41.7793 80.6421 40.2655 80.1184 38.0805C79.6417 36.0672 79.5791 34.3739 79.5869 33.3361V31.2838C79.7589 26.9841 81.0407 23.1214 83.018 20.3044C84.5108 18.2287 85.3862 15.7238 85.3862 13.0238C85.3862 5.82913 79.1727 0 71.5055 0C63.8383 0 58.0235 5.45457 57.6327 12.3215H57.6171V28.3887C57.6561 30.043 57.5076 32.6416 56.4135 35.5678L56.39 35.6303C55.3349 38.4083 53.3653 40.7649 50.8643 42.3802C46.8158 45.0099 43.1581 46.633 40.4616 47.6397C38.3436 48.4356 33.5682 50.0587 28.6365 50.4489C26.7764 50.5971 24.7678 50.5737 24.7678 50.5737C18.3433 50.4723 18.5074 50.0353 12.6144 48.2171C8.09692 46.8203 2.11011 48.4278 0.523526 52.7977C-1.2819 57.7763 1.67243 61.9277 7.54201 64.8383C6.78389 66.7033 6.37747 68.662 6.37747 70.6752C6.37747 83.8552 23.611 94.5302 44.8853 94.5302C61.2983 94.5302 75.3274 88.1626 80.8609 79.1965C80.8609 79.1809 80.8765 79.1731 80.8843 79.1575C84.9407 74.0385 85.7691 69.0287 86.1052 62.5051C86.6914 51.2526 82.6038 44.292 81.6034 42.2007Z" fill="#F7F3F0"/>
<path d="M30.4888 68.623C31.0828 74.0698 34.2716 75.9348 35.7644 76.723C38.703 78.268 43.58 77.3862 43.58 77.3862C43.58 77.3862 45.4167 80.2267 48.2929 81.2801C50.1061 81.9434 54.6549 83.4495 59.9773 79.2513" stroke="#E8DEDA" stroke-width="2.83" stroke-linecap="round" stroke-linejoin="round"/>
<path d="M74.3115 11.6974C74.9806 11.6974 75.523 11.1558 75.523 10.4878C75.523 9.81984 74.9806 9.27832 74.3115 9.27832C73.6425 9.27832 73.1001 9.81984 73.1001 10.4878C73.1001 11.1558 73.6425 11.6974 74.3115 11.6974Z" fill="#514C4B"/>
<path d="M44.5806 55.9502C53.2265 55.9502 60.2354 50.4231 60.2354 43.6052C60.2354 36.7873 53.2265 31.2603 44.5806 31.2603C35.9347 31.2603 28.9258 36.7873 28.9258 43.6052C28.9258 50.4231 35.9347 55.9502 44.5806 55.9502Z" fill="#FF991D"/>
<path d="M44.237 34.1789L47.1522 33.578C47.2694 33.5546 47.3554 33.7341 47.3007 33.8979L47.2069 34.1789C47.16 34.3271 47.2304 34.4988 47.332 34.4988L49.0358 34.5534C49.2155 34.5534 49.2312 34.967 49.0436 34.9982L48.6294 35.0606C48.4652 35.0841 48.4496 35.4352 48.6059 35.4976C48.7779 35.5601 48.7388 35.9424 48.5668 35.9346L45.8392 35.7473C45.8392 35.7473 45.8001 35.7473 45.7845 35.7629L44.2604 36.6213C44.2604 36.6213 44.1901 36.6369 44.1588 36.6213L42.6347 35.7629C42.6347 35.7629 42.5957 35.7473 42.58 35.7473L39.8524 35.9346C39.6804 35.9502 39.6413 35.5601 39.8133 35.4976C39.9696 35.4352 39.954 35.0841 39.7898 35.0606L39.3756 34.9982C39.1958 34.967 39.2037 34.5612 39.3834 34.5534L41.0872 34.4988C41.1967 34.4988 41.2592 34.3271 41.2123 34.1789L41.1185 33.8979C41.0638 33.7419 41.1498 33.5546 41.267 33.578L44.1822 34.1789C44.1822 34.1789 44.2057 34.1789 44.2213 34.1789H44.237Z" fill="#00A000"/>
</g>
<defs>
<clipPath id="clip0_559_10046">
<rect width="96" height="107" fill="white"/>
</clipPath>
</defs>
</svg>
