<svg width="320" height="235" viewBox="0 0 320 235" fill="none" xmlns="http://www.w3.org/2000/svg">
<g clip-path="url(#clip0_567_29173)">
<path d="M142.33 208.363C143.904 210.901 145.519 213.586 145.724 216.566C145.969 220.151 144.051 223.647 141.313 225.988C138.575 228.329 135.116 229.647 131.623 230.531C123.065 232.693 113.908 232.439 105.489 229.803C102.251 228.788 99.0455 227.38 96.5615 225.063C94.0776 222.746 92.3971 219.39 92.7332 216.009C93.0611 212.686 95.2991 209.771 98.0699 207.897C100.841 206.022 104.112 205.04 107.358 204.238C113.342 202.764 119.54 201.798 125.672 202.437C131.804 203.075 139.526 203.853 142.321 208.363H142.33Z" fill="#5C5C5C"/>
<path d="M96.9466 209.534C99.4716 212.276 102.046 215.101 103.406 218.572C104.767 222.043 104.661 226.34 102.16 229.099C100.357 231.088 97.6435 231.98 95.0038 232.529C86.6011 234.281 77.6737 233.38 69.7956 229.991C63.9178 227.462 58.3515 223.18 56.3513 217.106C55.0396 213.111 55.5807 208.298 58.5565 205.335C60.3764 203.517 62.8849 202.559 65.377 201.945C76.0341 199.326 89.1752 201.111 96.9384 209.542L96.9466 209.534Z" fill="#787878"/>
<path d="M165.71 27.8087C166.029 14.5717 153.889 3.58589 140.912 0.843525C130.746 -1.30125 119.581 0.630686 111.309 6.90128C103.038 13.1719 98.0864 23.9203 99.6603 34.1776C100.595 40.3008 103.644 45.8592 105.702 51.6959C107.76 57.5327 108.752 64.3026 105.71 69.6973C101.956 76.3608 93.5612 78.612 85.9947 79.7744C63.5492 83.2126 40.5626 82.5414 18.1827 78.7675C14.8708 78.2109 11.2146 77.6378 8.35356 79.3979C6.95175 80.2574 5.91063 81.5918 5.03347 82.9834C-0.360666 91.5052 -0.19671 103.203 5.43516 111.569C2.45117 112.257 1.21331 115.785 0.729638 118.806C-3.29547 143.905 10.1325 169.192 28.9218 186.342C59.2371 213.995 105.44 224.129 143.551 208.878C155.774 203.983 167.144 196.599 175.637 186.555C184.13 176.51 189.606 163.699 189.754 150.552C189.934 134.147 182.138 118.863 175.162 104.014C168.194 89.1558 161.734 72.8735 164.783 56.755" fill="#EBEBEB"/>
<path d="M34.5617 117.816C32.2335 122.474 32.1188 128.18 34.2584 132.928C36.398 137.676 40.7592 141.376 45.7926 142.719C43.8252 144.994 43.2841 148.253 43.817 151.216C44.3498 154.179 45.8582 156.873 47.5962 159.328C53.2772 167.367 63.1063 173.679 72.6813 171.354" stroke="#D8D8D8" stroke-width="2.83" stroke-linecap="round" stroke-linejoin="round"/>
<path d="M173.563 32.9335C198.599 23.8551 225.07 18.7142 251.253 18.3867C252.639 21.3829 253.18 24.7556 252.786 28.03C225.824 29.0205 198.328 30.1093 173.046 39.5152C172.219 39.8263 171.317 40.1455 170.481 39.859C168.562 39.2041 168.21 35.8396 166.177 35.9051C168.243 34.8982 170.366 34.0878 173.555 32.9335H173.563Z" fill="#CCCCCC"/>
<path d="M153.848 46.1289C139.411 53.8976 125.778 63.1561 113.236 73.6999C115.228 75.4599 116.736 77.752 117.572 80.2734C130.836 69.1566 144.51 58.5391 158.57 48.4456C157.364 47.7743 156.151 47.1112 153.848 46.1289Z" fill="#CCCCCC"/>
<path d="M249.884 40.9564C249.729 43.4368 249.204 46.4411 246.876 47.2925C245.794 47.6854 244.597 47.4808 243.466 47.2761C219.126 42.9047 193.992 42.9374 169.661 47.3661C169.071 43.5105 167.817 39.753 165.964 36.3148C192.754 27.7276 222.094 31.2558 249.884 40.9564Z" fill="#A4A4A4"/>
<path d="M166.546 48.486C149.331 60.9289 134.87 76.7118 120.532 92.3801C118.868 90.571 116.81 89.1221 114.547 88.1643C129.18 72.144 145.223 57.4007 162.431 44.1719C163.152 45.8255 164.3 47.299 166.546 48.4778V48.486Z" fill="#A4A4A4"/>
<path d="M171.243 213.324C170.792 213.259 170.144 213.226 169.382 213.357C168.62 213.488 168.021 213.75 167.611 213.963C167.242 213.095 166.062 212.939 165.3 213.431C164.537 213.93 164.119 214.847 163.816 215.747C162.201 220.553 162.816 226.16 165.431 230.433C165.636 230.769 165.865 231.105 166.209 231.268C166.751 231.522 167.406 231.211 167.775 230.712C168.144 230.212 168.292 229.574 168.423 228.96C169.398 230.13 170.907 230.581 172.259 230.122C174.129 229.484 174.637 227.462 174.661 227.339C174.915 227.036 177.481 223.942 176.637 219.709C175.702 215.002 171.44 213.39 171.243 213.324Z" fill="#C5C5C5"/>
<path d="M168.275 217.646C168.907 221.076 169.087 224.588 168.808 228.059" stroke="#B3B3B3" stroke-width="2.83" stroke-linecap="round" stroke-linejoin="round"/>
<path d="M174.776 229.884C175.793 223.958 174.383 217.793 170.645 213.078C172.3 210.753 175.686 210.729 178.539 210.843C192.41 211.384 206.165 209.583 219.872 207.086C225.971 210.68 229.783 215.526 231.046 219.987C212.002 220.683 192.852 223.859 174.776 229.884Z" fill="#EBEBEB"/>
<path d="M299.563 206.66C288.135 207.045 277.396 208.298 266.788 210.287C255.697 207.667 242.531 205.915 231.005 204.941C253.532 200.431 276.011 195.29 298.784 196.902C299.653 200.07 299.924 203.402 299.563 206.66Z" fill="#CCCCCC"/>
<path d="M318.131 233.667C317.688 234.24 317.18 234.845 316.475 234.976C315.909 235.083 315.344 234.862 314.811 234.641C288.357 223.86 259.582 218.948 231.038 219.988C229.775 215.526 225.963 210.68 219.864 207.086C223.578 206.415 227.291 205.686 231.005 204.941C242.531 205.916 255.697 207.667 266.788 210.287C278.536 211.998 289.758 216.14 300.883 220.258C305.941 222.132 310.999 224.007 316.057 225.882C317.598 226.446 319.328 227.2 319.844 228.763C320.418 230.482 319.238 232.242 318.131 233.667Z" fill="#A4A4A4"/>
<path d="M160.455 30.5428C161.684 28.308 164.759 27.6613 167.185 28.4471C169.612 29.233 171.505 31.1076 173.235 32.9741C174.965 34.8405 176.67 36.8298 178.949 37.984C180.457 38.7453 182.146 39.1055 183.679 39.8177C185.212 40.5299 186.679 41.7496 186.983 43.4114C187.286 45.0405 186.376 46.6941 185.105 47.7501C183.835 48.8061 182.228 49.3628 180.662 49.8949C174.038 52.1461 167.251 54.2417 160.258 54.3891C157.717 54.4382 155.118 54.2172 152.806 53.1775C150.494 52.1379 148.494 50.1568 147.937 47.6846C147.601 46.1784 147.806 44.5984 148.224 43.1167C149.683 37.9758 153.864 33.6945 160.463 30.5264L160.455 30.5428Z" fill="#787878"/>
<path d="M133.287 34.0799C134.931 34.0799 136.263 32.7495 136.263 31.1083C136.263 29.4671 134.931 28.1367 133.287 28.1367C131.644 28.1367 130.312 29.4671 130.312 31.1083C130.312 32.7495 131.644 34.0799 133.287 34.0799Z" fill="#514C4B"/>
</g>
<defs>
<clipPath id="clip0_567_29173">
<rect width="320" height="235" fill="white"/>
</clipPath>
</defs>
</svg>
