<svg width="184" height="153" viewBox="0 0 184 153" fill="none" xmlns="http://www.w3.org/2000/svg">
<path d="M105.796 118.823C104.622 120.461 102.332 120.782 100.307 120.846C94.2799 121.032 88.0643 120.12 82.8543 117.122C81.8032 116.518 80.7781 115.812 80.0969 114.817C79.4156 113.821 79.1236 112.492 79.6297 111.401C80.1682 110.232 81.4399 109.597 82.6467 109.141C86.9872 107.51 91.782 107.073 96.3496 107.908C98.8929 108.37 101.449 109.269 103.292 111.061C105.135 112.852 106.108 115.684 105.803 118.817L105.796 118.823Z" fill="#5C5C5C"/>
<path d="M130.234 117.294C130.526 119.008 128.904 120.421 127.386 121.288C120.587 125.172 112.081 126.013 104.639 123.528C103.614 123.188 102.511 122.687 102.108 121.699C101.667 120.601 102.29 119.361 103.082 118.475C105.106 116.209 108.188 115.156 111.198 114.629C116.415 113.718 121.865 114.128 126.88 115.811C128.093 116.215 129.339 116.742 130.228 117.294H130.234Z" fill="#787878"/>
<path d="M71.193 52.6817C71.8548 54.518 71.2579 56.592 70.1938 58.2357C69.1298 59.8794 67.657 61.2021 66.3528 62.6596C59.8842 69.8638 57.8534 80.8755 61.9474 89.6206C64.0106 94.0253 67.3974 99.2711 70.8686 102.693C78.3559 110.071 86.8553 115.394 97.0676 118.084C102.161 119.426 107.481 119.651 112.749 119.516C125.998 119.169 139.396 117.962 150.815 111.31C158.62 106.764 164.972 100.221 167.353 97.3256C170.993 92.8952 174.224 87.5146 176.962 81.7037C178.617 78.1916 180.245 71.8414 176.917 66.2232C179.804 63.2182 182.049 59.5198 182.743 55.4298C183.982 48.1422 180.531 43.898 176.917 41.792C174.945 40.6427 171.279 40.7133 168.988 40.7711C163.584 40.9123 158.471 43.1147 153.157 44.1163C141.946 46.2416 130.196 43.7311 118.79 43.2945C114.002 43.1083 110.543 43.4357 105.677 44.0971L105.145 41.9204C104.905 38.5688 105.022 35.2107 105.178 31.859C105.586 23.1781 97.4504 14.4329 88.7174 13.5533C79.9844 12.6736 73.8661 17.2196 69.2011 23.6019C65.7559 28.3083 65.5094 37.2204 67.7153 40.8481L68.2344 46.8709L71.1865 52.6817" fill="#EBEBEB"/>
<path d="M165.264 63.2437C166.004 67.5328 164.499 72.1365 161.365 75.1799C158.231 78.2234 153.553 79.636 149.239 78.8334C150.997 80.9394 151.159 84.0599 150.127 86.5961C149.096 89.1324 147.039 91.1421 144.762 92.6895C141.154 95.1358 136.613 96.5933 132.356 95.5853C131.876 95.4697 131.338 95.2578 131.208 94.7891" stroke="#D8D8D8" stroke-width="2.83" stroke-linecap="round" stroke-linejoin="round"/>
<path d="M67.72 40.8479C70.5682 38.9537 74.7336 39.3197 77.1926 41.6826C78.1074 42.5558 78.8471 43.6923 80.0279 44.1546C80.5599 44.3601 81.2347 44.4949 81.4164 45.0278C81.6045 45.5929 81.079 46.1194 80.5989 46.4789C76.2259 49.76 71.3468 52.3861 66.1888 54.2481C65.1896 54.6077 64.158 54.9416 63.0939 54.903C62.0299 54.8645 60.9269 54.3765 60.4273 53.4519C59.8888 52.4567 60.1743 51.1854 60.8036 50.2415C61.433 49.2977 62.3543 48.5914 63.2042 47.8401C65.1182 46.1515 66.8311 43.9812 67.72 40.8543V40.8479Z" fill="#787878"/>
<path d="M36.8471 129.737C35.2121 127.58 32.0784 127.374 29.3534 127.361C21.1848 127.323 12.4713 127.438 5.69119 131.946C4.51035 132.729 3.3879 133.667 2.6807 134.887C1.97349 136.106 1.73992 137.667 2.3498 138.938C3.07647 140.447 4.84124 141.25 6.52815 141.307C8.21507 141.365 9.85656 140.813 11.4461 140.241C16.2538 138.508 20.9837 136.55 25.6097 134.379C29.0354 132.768 32.7466 130.989 36.4514 131.779C36.5487 131.259 36.646 130.739 36.8342 129.743L36.8471 129.737Z" fill="#A4A4A4"/>
<path d="M32.682 121.917C24.9482 119.329 16.5915 117.249 8.69546 119.291C6.69063 119.811 4.69878 120.626 3.2649 122.097C2.53174 122.848 1.94781 124.004 2.48633 124.903C2.70692 125.275 3.08972 125.532 3.46603 125.75C5.73039 127.047 8.37105 127.509 10.9728 127.811C19.2062 128.768 27.6018 128.383 35.7055 126.662L35.9715 123.028C34.7647 122.835 33.7656 122.277 32.682 121.917Z" fill="#CCCCCC"/>
<path d="M36.8479 141.307C32.8058 139.933 31.8455 133.718 31.7547 129.487C31.6638 125.063 32.1764 120.157 35.4529 117.146C38.8202 114.051 43.9653 113.987 48.5265 114.539C57.6228 115.631 66.5115 118.43 74.5763 122.745C76.4838 123.766 78.3848 124.902 79.7798 126.546C81.1747 128.19 81.9922 130.45 81.4342 132.524C80.5973 135.619 76.1853 138.527 73.1424 139.632C61.4249 143.882 50.8557 146.072 36.8543 141.307H36.8479Z" fill="#AAAAAA"/>
<path d="M51.503 115.997C49.3619 117.229 48.5638 118.52 47.662 120.292C46.7601 122.064 46.6628 124.665 47.0002 126.623" stroke="#969696" stroke-width="2.83" stroke-linecap="round" stroke-linejoin="round"/>
<path d="M62.2863 118.571C58.7503 120.575 56.3886 124.466 56.2589 128.498" stroke="#969696" stroke-width="2.83" stroke-linecap="round" stroke-linejoin="round"/>
<path d="M86.2241 37.3358C87.1056 37.3358 87.8201 36.6286 87.8201 35.7563C87.8201 34.8839 87.1056 34.1768 86.2241 34.1768C85.3426 34.1768 84.628 34.8839 84.628 35.7563C84.628 36.6286 85.3426 37.3358 86.2241 37.3358Z" fill="#514C4B"/>
<path d="M110.628 10.9913C111.257 9.61082 112.905 8.76328 114.411 9.05864C115.916 9.35399 117.116 10.7537 117.168 12.269C117.22 13.7843 116.104 15.2611 114.625 15.6464C114.151 15.7684 113.619 15.8133 113.282 16.1665C113.08 16.3784 112.99 16.6673 112.925 16.9562C112.451 19.0302 113.003 21.316 114.378 22.9533" stroke="#C1C1C1" stroke-width="6" stroke-linecap="round" stroke-linejoin="round"/>
<path d="M117.987 29.748C118.647 29.748 119.183 29.2145 119.183 28.5564C119.183 27.8982 118.647 27.3647 117.987 27.3647C117.326 27.3647 116.79 27.8982 116.79 28.5564C116.79 29.2145 117.326 29.748 117.987 29.748Z" fill="#C1C1C1" stroke="#C1C1C1" stroke-width="4.25" stroke-linecap="round" stroke-linejoin="round"/>
</svg>
