<svg width="24" height="24" viewBox="0 0 24 24" fill="none" xmlns="http://www.w3.org/2000/svg">
<path d="M12 13C12.9889 13 13.9556 12.7068 14.7779 12.1573C15.6001 11.6079 16.241 10.827 16.6194 9.91342C16.9978 8.99979 17.0969 7.99446 16.9039 7.02455C16.711 6.05465 16.2348 5.16373 15.5355 4.46447C14.8363 3.76521 13.9454 3.289 12.9755 3.09608C12.0055 2.90315 11.0002 3.00217 10.0866 3.3806C9.17295 3.75904 8.39206 4.39991 7.84265 5.22215C7.29324 6.0444 7 7.0111 7 8C7 9.32609 7.52678 10.5979 8.46447 11.5355C9.40215 12.4732 10.6739 13 12 13ZM12 5C12.5933 5 13.1734 5.17595 13.6667 5.50559C14.1601 5.83524 14.5446 6.30377 14.7716 6.85195C14.9987 7.40013 15.0581 8.00333 14.9424 8.58527C14.8266 9.16722 14.5409 9.70177 14.1213 10.1213C13.7018 10.5409 13.1672 10.8266 12.5853 10.9424C12.0033 11.0581 11.4001 10.9987 10.8519 10.7716C10.3038 10.5446 9.83524 10.1601 9.50559 9.66671C9.17595 9.17337 9 8.59335 9 8C9 7.20435 9.31607 6.44129 9.87868 5.87868C10.4413 5.31607 11.2044 5 12 5ZM19 18V20C19 20.2652 18.8946 20.5196 18.7071 20.7071C18.5196 20.8946 18.2652 21 18 21C17.7348 21 17.4804 20.8946 17.2929 20.7071C17.1054 20.5196 17 20.2652 17 20V18C17 17.7348 16.8946 17.4804 16.7071 17.2929C16.5196 17.1054 16.2652 17 16 17H8C7.73478 17 7.48043 17.1054 7.29289 17.2929C7.10536 17.4804 7 17.7348 7 18V20C7 20.2652 6.89464 20.5196 6.70711 20.7071C6.51957 20.8946 6.26522 21 6 21C5.73478 21 5.48043 20.8946 5.29289 20.7071C5.10536 20.5196 5 20.2652 5 20V18C5 17.2044 5.31607 16.4413 5.87868 15.8787C6.44129 15.3161 7.20435 15 8 15H16C16.7956 15 17.5587 15.3161 18.1213 15.8787C18.6839 16.4413 19 17.2044 19 18Z" fill="#ADADAD"/>
</svg>
