<svg width="118" height="38" viewBox="0 0 118 38" fill="none" xmlns="http://www.w3.org/2000/svg">
<path d="M20.36 0.759998C21.8533 0.759998 23.2133 0.919999 24.44 1.24C25.6933 1.53333 26.8533 2.12 27.92 3C28.1333 3.16 28.2133 3.38667 28.16 3.68C28.0267 4.16 27.84 4.62667 27.6 5.08C27.3867 5.50667 27.1067 5.89333 26.76 6.24C26.4133 6.56 26.0133 6.82666 25.56 7.04C25.1067 7.25333 24.6133 7.36 24.08 7.36C23.4933 7.36 22.9867 7.24 22.56 7C22.1333 6.73333 21.7333 6.41333 21.36 6.04C21.0133 5.64 20.6667 5.22666 20.32 4.8C20 4.34666 19.6133 3.93333 19.16 3.56C18.7333 3.16 18.2267 2.84 17.64 2.6C17.0533 2.33333 16.3333 2.2 15.48 2.2C14.5467 2.2 13.9333 2.44 13.64 2.92C13.3733 3.37333 13.24 4.01333 13.24 4.84V13.2C13.24 13.4133 13.2667 13.6267 13.32 13.84C13.3733 14.0267 13.4933 14.2133 13.68 14.4C13.8933 14.5867 14.1867 14.7333 14.56 14.84C14.96 14.9467 15.5067 15 16.2 15C16.84 15 17.4 14.9067 17.88 14.72C18.3867 14.5333 18.8267 14.2933 19.2 14C19.5733 13.7067 19.88 13.3867 20.12 13.04C20.36 12.6667 20.5333 12.2933 20.64 11.92C20.6933 11.7867 20.7733 11.6933 20.88 11.64C21.0133 11.5867 21.1333 11.6 21.24 11.68C21.5067 11.8933 21.7333 12.3067 21.92 12.92C22.1067 13.5333 22.2 14.52 22.2 15.88C22.2 17.2133 22.1067 18.1867 21.92 18.8C21.7333 19.4133 21.5067 19.8267 21.24 20.04C21.1333 20.12 21.0133 20.1467 20.88 20.12C20.7733 20.0667 20.6933 19.9733 20.64 19.84C20.5333 19.4667 20.36 19.1067 20.12 18.76C19.88 18.3867 19.5733 18.0533 19.2 17.76C18.8267 17.4667 18.3867 17.2267 17.88 17.04C17.4 16.8533 16.84 16.76 16.2 16.76C15.5067 16.76 14.96 16.8133 14.56 16.92C14.1867 17.0267 13.8933 17.1733 13.68 17.36C13.4933 17.52 13.3733 17.7067 13.32 17.92C13.2667 18.1333 13.24 18.3467 13.24 18.56V24.92C13.24 25.5333 13.32 26.0667 13.48 26.52C13.64 26.9733 13.84 27.3733 14.08 27.72C14.3467 28.0667 14.6133 28.3733 14.88 28.64C15.1733 28.88 15.44 29.08 15.68 29.24C15.8133 29.32 15.88 29.4267 15.88 29.56C15.88 29.6933 15.8267 29.8133 15.72 29.92C15.48 30.1067 15.1333 30.28 14.68 30.44C14.2533 30.5733 13.7733 30.6933 13.24 30.8C13.0533 30.8267 12.7733 30.8533 12.4 30.88C12.0267 30.9067 11.64 30.9333 11.24 30.96C10.84 30.96 10.4667 30.9733 10.12 31C9.77333 31 9.52 31 9.36 31H7.68C7.54667 31 7.29333 31 6.92 31C6.57333 30.9733 6.18667 30.96 5.76 30.96C5.36 30.9333 4.96 30.9067 4.56 30.88C4.18667 30.8533 3.92 30.8267 3.76 30.8C3.22667 30.6933 2.73333 30.5733 2.28 30.44C1.82667 30.28 1.49333 30.1067 1.28 29.92C1.14667 29.8133 1.08 29.6933 1.08 29.56C1.10667 29.4267 1.18667 29.32 1.32 29.24C1.8 28.8933 2.2 28.4533 2.52 27.92C2.84 27.36 3.10667 26.5867 3.32 25.6C3.53333 24.56 3.68 23.2133 3.76 21.56C3.86667 19.9067 3.92 17.8133 3.92 15.28C3.92 12.8533 3.88 10.8533 3.8 9.28C3.72 7.70666 3.57333 6.44 3.36 5.48C3.14667 4.52 2.86667 3.8 2.52 3.32C2.17333 2.81333 1.73333 2.41333 1.2 2.12C0.906667 1.90667 0.88 1.68 1.12 1.44C1.33333 1.25333 1.68 1.09333 2.16 0.959998C2.64 0.826665 3.30667 0.759998 4.16 0.759998H13.24H20.36ZM43.5369 9.32C44.1502 9.32 44.7502 9.44 45.3369 9.68C45.9235 9.92 46.4435 10.2267 46.8969 10.6C47.3769 10.9467 47.7502 11.3333 48.0169 11.76C48.3102 12.16 48.4569 12.5333 48.4569 12.88C48.4569 13.1733 48.3769 13.6133 48.2169 14.2C48.0835 14.7867 47.8435 15.3867 47.4969 16C47.1769 16.5867 46.7369 17.1067 46.1769 17.56C45.6169 18.0133 44.9235 18.24 44.0969 18.24C43.2435 18.24 42.5235 18.0133 41.9369 17.56C41.3502 17.08 40.8569 16.56 40.4569 16C40.0569 15.44 39.7102 14.9333 39.4169 14.48C39.1235 14 38.8569 13.76 38.6169 13.76C38.2435 13.76 38.0035 13.92 37.8969 14.24C37.7902 14.56 37.7369 15.0667 37.7369 15.76V20C37.7369 20.7733 37.7502 21.5733 37.7769 22.4C37.8302 23.2267 37.9235 24.0533 38.0569 24.88C38.2169 25.68 38.4435 26.4533 38.7369 27.2C39.0302 27.9467 39.4435 28.6267 39.9769 29.24C40.1635 29.4533 40.1635 29.6533 39.9769 29.84C39.6569 30.1333 38.9369 30.4 37.8169 30.64C36.7235 30.88 35.1769 31 33.1769 31C31.2035 31 29.6569 30.88 28.5369 30.64C27.4435 30.4 26.7369 30.1333 26.4169 29.84C26.2302 29.6533 26.2302 29.4533 26.4169 29.24C26.9502 28.6267 27.3635 27.9467 27.6569 27.2C27.9502 26.4533 28.1635 25.68 28.2969 24.88C28.4569 24.0533 28.5502 23.2267 28.5769 22.4C28.6302 21.5733 28.6569 20.7733 28.6569 20C28.6569 17.5733 28.4302 15.7333 27.9769 14.48C27.5235 13.2267 27.0169 12.3333 26.4569 11.8C26.3235 11.6933 26.2702 11.56 26.2969 11.4C26.2969 11.24 26.3635 11.12 26.4969 11.04C27.4302 10.2933 28.7502 9.72 30.4569 9.32C32.1635 8.89333 34.3769 8.65333 37.0969 8.6C37.5235 8.6 37.7369 8.81333 37.7369 9.24V11.24C37.7369 11.32 37.7769 11.3867 37.8569 11.44C37.9369 11.4667 38.0169 11.4533 38.0969 11.4C38.9502 10.7067 39.7902 10.1867 40.6169 9.84C41.4702 9.49333 42.4435 9.32 43.5369 9.32ZM50.7344 4.4C50.7344 3.94667 50.881 3.50667 51.1744 3.08C51.4944 2.62667 51.921 2.21333 52.4544 1.84C52.9877 1.46667 53.6144 1.14667 54.3344 0.879999C55.0544 0.586665 55.8144 0.373331 56.6144 0.239998C57.441 0.106665 58.2144 0.0666652 58.9344 0.119999C59.6544 0.173332 60.281 0.306665 60.8144 0.519999C61.3477 0.733333 61.761 1.01333 62.0544 1.36C62.3744 1.70666 62.5344 2.10667 62.5344 2.56C62.5344 3.01333 62.3744 3.46667 62.0544 3.92C61.761 4.34667 61.3477 4.74667 60.8144 5.12C60.281 5.49333 59.6544 5.82667 58.9344 6.12C58.2144 6.38666 57.441 6.58666 56.6144 6.72C55.8144 6.85333 55.0544 6.89333 54.3344 6.84C53.6144 6.78667 52.9877 6.65333 52.4544 6.44C51.921 6.22667 51.4944 5.94666 51.1744 5.6C50.881 5.25333 50.7344 4.85333 50.7344 4.4ZM64.6144 29.84C64.2944 30.1333 63.5877 30.4 62.4944 30.64C61.401 30.88 59.8544 31 57.8544 31C55.8544 31 54.3077 30.88 53.2144 30.64C52.121 30.4 51.4144 30.1333 51.0944 29.84C50.881 29.68 50.8677 29.48 51.0544 29.24C51.5877 28.6267 52.001 27.9467 52.2944 27.2C52.6144 26.4533 52.841 25.68 52.9744 24.88C53.1344 24.0533 53.2277 23.2267 53.2544 22.4C53.281 21.5733 53.2944 20.7733 53.2944 20C53.2944 18.7733 53.2277 17.7067 53.0944 16.8C52.9877 15.8933 52.8277 15.12 52.6144 14.48C52.4277 13.8133 52.201 13.2667 51.9344 12.84C51.6677 12.4133 51.401 12.0667 51.1344 11.8C51.001 11.6933 50.9344 11.56 50.9344 11.4C50.961 11.24 51.041 11.12 51.1744 11.04C52.1077 10.2933 53.4144 9.72 55.0944 9.32C56.801 8.89333 59.0277 8.65333 61.7744 8.6C62.201 8.6 62.4144 8.81333 62.4144 9.24V20C62.4144 20.7733 62.4277 21.5733 62.4544 22.4C62.481 23.2267 62.561 24.0533 62.6944 24.88C62.8544 25.68 63.081 26.4533 63.3744 27.2C63.6944 27.9467 64.121 28.6267 64.6544 29.24C64.7877 29.48 64.7744 29.68 64.6144 29.84ZM78.9325 24.96C80.6392 24.4533 82.2525 24.1867 83.7725 24.16C85.3192 24.1067 86.6658 24.2933 87.8125 24.72C88.9592 25.12 89.8792 25.76 90.5725 26.64C91.2925 27.4933 91.6925 28.5733 91.7725 29.88C91.8525 31.3733 91.5725 32.6533 90.9325 33.72C90.2925 34.7867 89.4658 35.6267 88.4525 36.24C87.4658 36.88 86.3858 37.28 85.2125 37.44C84.0392 37.6267 82.9725 37.56 82.0125 37.24C81.8258 37.1333 81.8125 37 81.9725 36.84C82.3725 36.6267 82.7325 36.24 83.0525 35.68C83.3992 35.12 83.4925 34.5467 83.3325 33.96C83.1992 33.4 82.7058 32.8933 81.8525 32.44C81.0258 32.0133 79.6525 31.8 77.7325 31.8C75.5192 31.8 73.7058 31.6133 72.2925 31.24C70.8792 30.8933 69.7592 30.4667 68.9325 29.96C68.1325 29.4267 67.5725 28.8667 67.2525 28.28C66.9592 27.6667 66.8125 27.12 66.8125 26.64C66.8125 26.0533 66.9458 25.4933 67.2125 24.96C67.5058 24.4 67.8658 23.8933 68.2925 23.44C68.7458 22.9867 69.2258 22.5733 69.7325 22.2C70.2392 21.8267 70.7192 21.5067 71.1725 21.24C70.0258 20.5733 69.1192 19.7867 68.4525 18.88C67.8125 17.9467 67.4925 16.9333 67.4925 15.84C67.4925 14.8533 67.7725 13.92 68.3325 13.04C68.8925 12.16 69.6658 11.3867 70.6525 10.72C71.6392 10.0533 72.7858 9.53333 74.0925 9.16C75.4258 8.78667 76.8392 8.6 78.3325 8.6C80.5992 8.6 82.6258 9.01333 84.4125 9.84C84.9725 9.54667 85.3992 9.18667 85.6925 8.76C85.9858 8.30667 86.2258 7.84 86.4125 7.36C86.6258 6.88 86.8258 6.4 87.0125 5.92C87.1992 5.44 87.4792 5 87.8525 4.6C88.3325 4.06667 88.8792 3.8 89.4925 3.8C90.1325 3.77333 90.6792 3.93333 91.1325 4.28C91.6125 4.62667 91.9325 5.10667 92.0925 5.72C92.2792 6.30667 92.1725 6.96 91.7725 7.68C91.3992 8.32 90.7058 8.93333 89.6925 9.52C88.7058 10.08 87.3725 10.4 85.6925 10.48C86.7858 11.1467 87.6392 11.9467 88.2525 12.88C88.8925 13.7867 89.2125 14.7733 89.2125 15.84C89.2125 16.8533 88.9192 17.8 88.3325 18.68C87.7725 19.5333 86.9992 20.2933 86.0125 20.96C85.0258 21.6267 83.8658 22.1467 82.5325 22.52C81.2258 22.8933 79.8258 23.08 78.3325 23.08C77.2125 23.08 76.1458 22.9733 75.1325 22.76C74.1458 22.5467 73.2258 22.2533 72.3725 21.88C72.1592 22.0133 71.9058 22.1867 71.6125 22.4C71.3458 22.5867 71.0925 22.8133 70.8525 23.08C70.6125 23.32 70.4125 23.5867 70.2525 23.88C70.0925 24.1733 70.0125 24.4933 70.0125 24.84C70.0125 25.2933 70.1458 25.6533 70.4125 25.92C70.7058 26.16 71.1858 26.2933 71.8525 26.32C72.5458 26.3467 73.4658 26.2533 74.6125 26.04C75.7592 25.8267 77.1992 25.4667 78.9325 24.96ZM78.3325 9.84C77.9325 9.84 77.5592 10 77.2125 10.32C76.8658 10.64 76.5592 11.0667 76.2925 11.6C76.0525 12.1333 75.8525 12.7733 75.6925 13.52C75.5325 14.24 75.4525 15.0133 75.4525 15.84C75.4525 16.6667 75.5325 17.4533 75.6925 18.2C75.8525 18.92 76.0525 19.5467 76.2925 20.08C76.5592 20.6133 76.8658 21.04 77.2125 21.36C77.5592 21.68 77.9325 21.84 78.3325 21.84C78.7325 21.84 79.1058 21.68 79.4525 21.36C79.7992 21.04 80.1058 20.6133 80.3725 20.08C80.6392 19.5467 80.8392 18.92 80.9725 18.2C81.1325 17.4533 81.2125 16.6667 81.2125 15.84C81.2125 15.0133 81.1325 14.24 80.9725 13.52C80.8392 12.7733 80.6392 12.1333 80.3725 11.6C80.1058 11.0667 79.7992 10.64 79.4525 10.32C79.1058 10 78.7325 9.84 78.3325 9.84ZM105.134 8.6C106.841 8.6 108.454 8.89333 109.974 9.48C111.494 10.0667 112.814 10.8667 113.934 11.88C115.054 12.8933 115.934 14.08 116.574 15.44C117.241 16.8 117.574 18.2533 117.574 19.8C117.574 21.3467 117.241 22.8 116.574 24.16C115.934 25.52 115.054 26.7067 113.934 27.72C112.814 28.7333 111.494 29.5333 109.974 30.12C108.454 30.7067 106.841 31 105.134 31C103.428 31 101.814 30.7067 100.294 30.12C98.801 29.5333 97.4944 28.7333 96.3744 27.72C95.2544 26.7067 94.361 25.52 93.6944 24.16C93.0544 22.8 92.7344 21.3467 92.7344 19.8C92.7344 18.2533 93.0544 16.8 93.6944 15.44C94.361 14.08 95.2544 12.8933 96.3744 11.88C97.4944 10.8667 98.801 10.0667 100.294 9.48C101.814 8.89333 103.428 8.6 105.134 8.6ZM105.134 29.44C105.588 29.44 106.001 29.1867 106.374 28.68C106.774 28.1733 107.121 27.4933 107.414 26.64C107.708 25.76 107.934 24.7333 108.094 23.56C108.281 22.3867 108.374 21.1333 108.374 19.8C108.374 18.4667 108.281 17.2133 108.094 16.04C107.934 14.8667 107.708 13.8533 107.414 13C107.121 12.12 106.774 11.4267 106.374 10.92C106.001 10.4133 105.588 10.16 105.134 10.16C104.681 10.16 104.254 10.4133 103.854 10.92C103.481 11.4267 103.148 12.12 102.854 13C102.588 13.8533 102.361 14.8667 102.174 16.04C102.014 17.2133 101.934 18.4667 101.934 19.8C101.934 21.1333 102.014 22.3867 102.174 23.56C102.361 24.7333 102.588 25.76 102.854 26.64C103.148 27.4933 103.481 28.1733 103.854 28.68C104.254 29.1867 104.681 29.44 105.134 29.44Z" fill="#F07401"/>
</svg>
