<svg width="22" height="38" viewBox="0 0 22 38" fill="none" xmlns="http://www.w3.org/2000/svg">
<path d="M8.41183 30.995C8.25504 31.1682 8.10894 31.3508 7.97433 31.5418C7.83635 31.7451 7.72601 31.9658 7.64621 32.1981C7.54109 32.4048 7.46736 32.6259 7.42746 32.8543C7.40956 33.0971 7.40956 33.3408 7.42746 33.5835C7.41514 34.0617 7.51503 34.5362 7.71913 34.9689C7.88287 35.4213 8.14411 35.8322 8.48433 36.1725C8.82456 36.5127 9.23545 36.7739 9.68788 36.9377C10.1243 37.1306 10.5962 37.2302 11.0733 37.2302C11.5504 37.2302 12.0223 37.1306 12.4587 36.9377C12.9111 36.7739 13.322 36.5127 13.6623 36.1725C14.0025 35.8322 14.2637 35.4213 14.4275 34.9689C14.5894 34.5256 14.6636 34.0551 14.6462 33.5835C14.649 33.1037 14.557 32.628 14.3756 32.1838C14.1941 31.7396 13.9268 31.3356 13.5889 30.995C13.25 30.6532 12.8468 30.382 12.4025 30.1969C11.9582 30.0118 11.4817 29.9165 11.0004 29.9165C10.5191 29.9165 10.0426 30.0118 9.59827 30.1969C9.15399 30.382 8.75076 30.6532 8.41183 30.995ZM11.0004 0.770998C9.07925 0.769767 7.1917 1.27456 5.52765 2.23459C3.8636 3.19462 2.48176 4.57601 1.5212 6.23975C1.25741 6.65471 1.08029 7.11874 1.00049 7.60393C0.920684 8.08912 0.939846 8.58544 1.05683 9.06303C1.17381 9.54062 1.38619 9.98962 1.6812 10.383C1.97621 10.7764 2.34774 11.106 2.77344 11.3521C3.19915 11.5982 3.67024 11.7556 4.15836 11.8149C4.64648 11.8742 5.14155 11.8341 5.61379 11.6971C6.08603 11.5601 6.52567 11.329 6.90628 11.0177C7.28688 10.7064 7.60058 10.3213 7.8285 9.88558C8.14971 9.32921 8.61224 8.8676 9.16924 8.54748C9.72624 8.22737 10.3579 8.06011 11.0004 8.06266C11.9673 8.06266 12.8946 8.44678 13.5784 9.13051C14.2621 9.81423 14.6462 10.7416 14.6462 11.7085C14.6462 12.6754 14.2621 13.6028 13.5784 14.2865C12.8946 14.9702 11.9673 15.3543 11.0004 15.3543C10.0334 15.3543 9.10611 15.7384 8.42238 16.4222C7.73866 17.1059 7.35454 18.0332 7.35454 19.0002V22.646C7.35454 23.6129 7.73866 24.5403 8.42238 25.224C9.10611 25.9077 10.0334 26.2918 11.0004 26.2918C11.9673 26.2918 12.8946 25.9077 13.5784 25.224C14.2621 24.5403 14.6462 23.6129 14.6462 22.646V21.9897C17.0575 21.1148 19.0845 19.4203 20.373 17.2023C21.6615 14.9843 22.1294 12.384 21.6951 9.85601C21.2607 7.32799 19.9516 5.03304 17.9967 3.37236C16.0418 1.71167 13.5654 0.790899 11.0004 0.770998Z" fill="white"/>
</svg>
