<svg width="8" height="8" viewBox="0 0 8 8" fill="none" xmlns="http://www.w3.org/2000/svg">
<path d="M6.4075 7.1575C6.2175 7.1575 6.0275 7.0875 5.8775 6.9375L0.2175 1.2775C-0.0725 0.987499 -0.0725 0.5075 0.2175 0.2175C0.5075 -0.0725 0.987499 -0.0725 1.2775 0.2175L6.9375 5.8775C7.2275 6.1675 7.2275 6.6475 6.9375 6.9375C6.7875 7.0875 6.5975 7.1575 6.4075 7.1575Z" fill="#5B5B5B"/>
<path d="M0.7475 7.1575C0.5575 7.1575 0.3675 7.0875 0.2175 6.9375C-0.0725 6.6475 -0.0725 6.1675 0.2175 5.8775L5.8775 0.2175C6.1675 -0.0725 6.6475 -0.0725 6.9375 0.2175C7.2275 0.5075 7.2275 0.987499 6.9375 1.2775L1.2775 6.9375C1.1375 7.0875 0.9375 7.1575 0.7475 7.1575Z" fill="#5B5B5B"/>
</svg>
